<?xml version="1.0" standalone="no"?>
<!DOCTYPE svg PUBLIC "-//W3C//DTD SVG 20010904//EN"
 "http://www.w3.org/TR/2001/REC-SVG-20010904/DTD/svg10.dtd">
<svg version="1.0" xmlns="http://www.w3.org/2000/svg"
 width="557.000000pt" height="557.000000pt" viewBox="0 0 557.000000 557.000000"
 preserveAspectRatio="xMidYMid meet">

<g transform="translate(0.000000,557.000000) scale(0.100000,-0.100000)"
fill="#000000" stroke="none">
<path d="M2195 5360 c-55 -8 -81 -24 -115 -72 -61 -84 -29 -212 63 -257 44
-21 96 -26 132 -12 60 25 165 -105 199 -247 8 -31 17 -82 21 -112 6 -54 5 -56
-24 -73 -17 -10 -52 -34 -77 -53 -38 -30 -51 -34 -68 -26 -12 5 -167 93 -344
196 -230 133 -331 186 -353 186 -31 0 -82 -28 -954 -532 -132 -77 -246 -146
-252 -155 -10 -13 -13 -170 -13 -708 l0 -692 22 -20 c13 -11 100 -65 193 -119
94 -54 226 -130 295 -170 l125 -72 12 -90 c21 -160 70 -261 167 -349 62 -56
171 -110 254 -125 l62 -12 0 -492 c0 -337 3 -501 11 -517 15 -34 1170 -701
1214 -701 20 0 85 32 195 96 91 53 329 191 530 306 448 258 483 280 491 312 4
14 7 244 8 511 l1 485 66 14 c236 46 414 261 414 500 l0 55 311 179 c171 99
317 189 325 200 12 17 14 127 14 703 l0 682 -22 25 c-13 14 -281 174 -595 356
-414 239 -581 330 -604 330 -17 0 -49 -11 -72 -24 -23 -13 -171 -99 -330 -190
-158 -92 -294 -169 -302 -172 -9 -4 -37 10 -68 34 -28 22 -62 45 -74 51 -28
14 -30 50 -7 159 20 98 64 181 125 236 46 42 50 43 87 33 79 -21 161 17 200
93 28 55 28 101 1 157 -35 72 -108 108 -189 93 -76 -14 -140 -82 -140 -150 0
-32 -6 -41 -46 -69 -96 -70 -178 -209 -208 -353 -9 -42 -16 -89 -16 -103 l0
-25 -94 0 -95 0 -6 48 c-26 188 -103 338 -221 430 -32 25 -44 42 -44 61 -1 40
-34 106 -66 128 -39 28 -91 40 -139 33z m-252 -835 c226 -129 295 -174 290
-185 -44 -104 -56 -159 -56 -260 0 -88 4 -118 27 -185 45 -131 149 -265 246
-315 23 -12 14 -17 -150 -70 -437 -142 -749 -287 -911 -421 -111 -93 -249
-295 -289 -424 -7 -22 -16 -44 -20 -48 -4 -5 -118 55 -254 134 l-246 142 2
605 3 605 515 298 c283 164 522 298 531 296 9 -1 150 -78 312 -172z m2486
-125 l511 -295 -2 -610 -3 -609 -239 -138 c-131 -76 -241 -138 -245 -138 -5 0
-14 19 -21 43 -33 111 -135 277 -232 378 -147 154 -454 307 -942 469 l-199 67
35 21 c59 37 163 155 197 224 49 101 64 177 59 298 -4 83 -11 119 -33 173 -15
38 -25 70 -23 72 23 21 597 344 609 342 9 -1 247 -135 528 -297z m-1495 52
c124 -58 211 -172 236 -309 39 -216 -122 -436 -345 -473 -145 -24 -302 41
-391 161 -167 228 -68 543 202 639 88 31 209 24 298 -18z m-294 -1025 c0 -17
-149 -462 -197 -587 -71 -188 -190 -428 -253 -511 -52 -70 -149 -155 -237
-208 -198 -121 -451 -134 -587 -29 -95 72 -138 169 -138 313 0 239 164 499
402 638 172 100 479 224 816 331 171 53 194 60 194 53z m430 -51 c418 -129
757 -275 922 -396 85 -63 179 -180 234 -293 133 -274 83 -527 -124 -629 -55
-28 -78 -33 -156 -36 -152 -6 -281 35 -431 139 -165 113 -269 272 -407 614
-69 173 -218 615 -218 648 0 5 8 6 18 3 9 -3 82 -25 162 -50z m-246 -339 c31
-92 70 -202 87 -244 16 -42 28 -82 25 -89 -8 -21 -104 -44 -180 -44 -82 1
-172 27 -169 50 1 8 18 58 38 110 20 52 57 158 82 235 47 144 53 159 58 153 2
-2 29 -79 59 -171z m-625 -1077 c74 -338 230 -600 409 -685 l62 -29 0 -173 c0
-185 9 -231 48 -252 34 -18 77 -13 106 14 l26 24 0 193 0 193 57 25 c67 28
169 120 223 200 86 126 162 317 197 495 9 50 18 91 19 93 1 2 41 -23 89 -54
100 -65 193 -107 298 -133 l72 -19 3 -463 2 -464 -521 -300 c-286 -165 -525
-299 -531 -297 -6 2 -242 136 -525 299 l-513 297 0 463 c0 362 3 464 13 467
182 49 271 87 379 162 34 24 63 42 65 41 1 -1 11 -45 22 -97z m936 -42 c-81
-311 -255 -531 -400 -504 -88 17 -185 121 -261 281 -56 117 -111 306 -86 293
163 -84 245 -108 376 -108 111 0 215 26 311 79 39 21 71 35 73 30 2 -4 -4 -36
-13 -71z"/>
</g>
</svg>
